<svg xmlns="http://www.w3.org/2000/svg" width="153" height="65" fill="none"><path fill="#C0BDE0" d="m0 27.242 13.525-6.02 7.786 4.516 1.572 14.812-9.593-.08 1.415-10.297-1.651-.95-8.1 6.336L0 27.243z"/><path fill="#461DB9" d="m22.176 25.103 11.953 8.792 4.718-8.475-9.594-3.881v-1.901l9.594-3.96-4.718-8.397-11.953 8.792v9.03z"/><path fill="#4876EF" d="M21.31 15.362 22.884.55 13.29.708l1.415 10.297-1.651.95L4.875 5.62 0 13.857l13.525 6.02 7.786-4.515z"/><path fill="#fff" d="M33.536 44.58v4.896h5.76v2.232h-5.76v5.112h6.48v2.232H30.8V42.348h9.216v2.232h-6.48zm14.482 12.024 3.744-10.776h2.904l-5.04 13.224h-3.264l-5.016-13.224h2.928l3.744 10.776zm13.972 2.664c-1.248 0-2.376-.28-3.384-.84a6.227 6.227 0 0 1-2.376-2.4c-.576-1.04-.864-2.24-.864-3.6 0-1.344.296-2.536.888-3.576a6.134 6.134 0 0 1 2.424-2.4c1.024-.56 2.168-.84 3.432-.84 1.264 0 2.408.28 3.432.84a6.134 6.134 0 0 1 2.424 2.4c.592 1.04.888 2.232.888 3.576 0 1.344-.304 2.536-.912 3.576a6.377 6.377 0 0 1-2.496 2.424c-1.04.56-2.192.84-3.456.84zm0-2.376c.704 0 1.36-.168 1.968-.504.624-.336 1.128-.84 1.512-1.512.384-.672.576-1.488.576-2.448s-.184-1.768-.552-2.424c-.368-.672-.856-1.176-1.464-1.512a4.004 4.004 0 0 0-1.968-.504c-.704 0-1.36.168-1.968.504-.592.336-1.064.84-1.416 1.512-.352.656-.528 1.464-.528 2.424 0 1.424.36 2.528 1.08 3.312.736.768 1.656 1.152 2.76 1.152zm8.177-6.216c0-1.632.376-3.096 1.128-4.392a8.14 8.14 0 0 1 3.096-3.024c1.312-.736 2.744-1.104 4.296-1.104 1.776 0 3.352.44 4.728 1.32 1.392.864 2.4 2.096 3.024 3.696H83.15c-.432-.88-1.032-1.536-1.8-1.968-.768-.432-1.656-.648-2.664-.648-1.104 0-2.088.248-2.952.744-.864.496-1.544 1.208-2.04 2.136-.48.928-.72 2.008-.72 3.24 0 1.232.24 2.312.72 3.24.496.928 1.176 1.648 2.04 2.16.864.496 1.848.744 2.952.744 1.008 0 1.896-.216 2.664-.648.768-.432 1.368-1.088 1.8-1.968h3.288c-.624 1.6-1.632 2.832-3.024 3.696-1.376.864-2.952 1.296-4.728 1.296-1.568 0-3-.36-4.296-1.08a8.32 8.32 0 0 1-3.096-3.048c-.752-1.296-1.128-2.76-1.128-4.392zm24.73 8.592c-1.248 0-2.376-.28-3.384-.84a6.227 6.227 0 0 1-2.376-2.4c-.576-1.04-.864-2.24-.864-3.6 0-1.344.296-2.536.888-3.576a6.134 6.134 0 0 1 2.424-2.4c1.024-.56 2.168-.84 3.432-.84 1.264 0 2.408.28 3.432.84a6.133 6.133 0 0 1 2.424 2.4c.592 1.04.888 2.232.888 3.576 0 1.344-.304 2.536-.912 3.576a6.377 6.377 0 0 1-2.496 2.424c-1.04.56-2.192.84-3.456.84zm0-2.376c.704 0 1.36-.168 1.968-.504.624-.336 1.128-.84 1.512-1.512.384-.672.576-1.488.576-2.448s-.184-1.768-.552-2.424c-.368-.672-.856-1.176-1.464-1.512a4.004 4.004 0 0 0-1.968-.504c-.704 0-1.36.168-1.968.504-.592.336-1.064.84-1.416 1.512-.352.656-.528 1.464-.528 2.424 0 1.424.36 2.528 1.08 3.312.736.768 1.656 1.152 2.76 1.152zm15.761-11.28c1.04 0 1.968.216 2.784.648a4.59 4.59 0 0 1 1.944 1.92c.464.848.696 1.872.696 3.072v7.8h-2.712V51.66c0-1.184-.296-2.088-.888-2.712-.592-.64-1.4-.96-2.424-.96s-1.84.32-2.448.96c-.592.624-.888 1.528-.888 2.712v7.392h-2.736V45.828h2.736v1.512a4.549 4.549 0 0 1 1.704-1.272 5.57 5.57 0 0 1 2.232-.456zm13.978 2.448h-2.448v10.992h-2.76V48.06h-1.56v-2.232h1.56v-.936c0-1.52.4-2.624 1.2-3.312.816-.704 2.088-1.056 3.816-1.056v2.28c-.832 0-1.416.16-1.752.48-.336.304-.504.84-.504 1.608v.936h2.448v2.232zm3.097 7.272c1.536-1.328 2.744-2.416 3.624-3.264.896-.864 1.64-1.76 2.232-2.688.592-.928.888-1.856.888-2.784 0-.96-.232-1.712-.696-2.256-.448-.544-1.16-.816-2.136-.816-.944 0-1.68.304-2.208.912-.512.592-.784 1.392-.816 2.4h-2.64c.048-1.824.592-3.216 1.632-4.176 1.056-.976 2.392-1.464 4.008-1.464 1.744 0 3.104.48 4.08 1.44.992.96 1.488 2.24 1.488 3.84 0 1.152-.296 2.264-.888 3.336a13.241 13.241 0 0 1-2.088 2.856c-.8.832-1.824 1.8-3.072 2.904l-1.08.96h7.608v2.28h-11.664V56.82l1.728-1.488zm11.811-9.456c.096-1.488.664-2.648 1.704-3.48 1.056-.832 2.4-1.248 4.032-1.248 1.12 0 2.088.2 2.904.6.816.4 1.432.944 1.848 1.632.416.688.624 1.464.624 2.328 0 .992-.264 1.84-.792 2.544s-1.16 1.176-1.896 1.416v.096c.944.288 1.68.816 2.208 1.584.528.752.792 1.72.792 2.904 0 .944-.216 1.784-.648 2.52-.432.736-1.072 1.32-1.92 1.752-.848.416-1.864.624-3.048.624-1.728 0-3.152-.44-4.272-1.32-1.104-.896-1.696-2.176-1.776-3.84h2.64c.064.848.392 1.544.984 2.088.592.528 1.392.792 2.4.792.976 0 1.728-.264 2.256-.792.528-.544.792-1.24.792-2.088 0-1.12-.36-1.912-1.08-2.376-.704-.48-1.792-.72-3.264-.72h-.624v-2.256h.648c1.296-.016 2.28-.232 2.952-.648.688-.416 1.032-1.072 1.032-1.968 0-.768-.248-1.376-.744-1.824-.496-.464-1.2-.696-2.112-.696-.896 0-1.592.232-2.088.696a2.712 2.712 0 0 0-.888 1.68h-2.664z"/></svg>